<svg width="38" height="30" viewBox="0 0 30 30" fill="none" xmlns="http://www.w3.org/2000/svg">
<g filter="url(#filter0_ddd_1_731)">
<circle cx="19" cy="15" r="15" fill="#1B1B1B"/>
<path d="M27 10.4255C26.4484 10.6598 25.8481 10.8284 25.2298 10.8941C25.8717 10.5185 26.3525 9.92521 26.5818 9.22545C25.9794 9.57833 25.3195 9.82578 24.6313 9.95681C24.3437 9.65402 23.9958 9.4128 23.6094 9.24819C23.2229 9.08357 22.8062 8.99909 22.3852 9.00001C20.6816 9.00001 19.3116 10.3598 19.3116 12.0284C19.3116 12.2627 19.3405 12.497 19.3873 12.7225C16.8366 12.5911 14.5616 11.3911 13.0492 9.55385C12.7736 10.0174 12.6292 10.5451 12.6309 11.0823C12.6309 12.1331 13.1735 13.0598 14.001 13.6047C13.5133 13.5858 13.0372 13.4538 12.6111 13.2195V13.2568C12.6111 14.7284 13.6675 15.9479 15.0754 16.2284C14.811 16.296 14.5391 16.3306 14.266 16.3314C14.0659 16.3314 13.8766 16.3118 13.6855 16.2852C14.0749 17.4852 15.2087 18.3568 16.5589 18.3852C15.5026 19.2 14.1794 19.6793 12.7427 19.6793C12.4849 19.6793 12.247 19.6704 12 19.642C13.3628 20.503 14.9798 21 16.7212 21C22.3744 21 25.4677 16.3882 25.4677 12.3852C25.4677 12.2539 25.4677 12.1225 25.4587 11.9911C26.0572 11.5598 26.5818 11.0254 27 10.4255Z" fill="white"/>
</g>
<defs>
<filter id="filter0_ddd_1_731" x="0" y="0" width="38" height="38" filterUnits="userSpaceOnUse" color-interpolation-filters="sRGB">
<feFlood flood-opacity="0" result="BackgroundImageFix"/>
<feColorMatrix in="SourceAlpha" type="matrix" values="0 0 0 0 0 0 0 0 0 0 0 0 0 0 0 0 0 0 127 0" result="hardAlpha"/>
<feOffset dy="4"/>
<feGaussianBlur stdDeviation="2"/>
<feComposite in2="hardAlpha" operator="out"/>
<feColorMatrix type="matrix" values="0 0 0 0 0 0 0 0 0 0 0 0 0 0 0 0 0 0 0.25 0"/>
<feBlend mode="normal" in2="BackgroundImageFix" result="effect1_dropShadow_1_731"/>
<feColorMatrix in="SourceAlpha" type="matrix" values="0 0 0 0 0 0 0 0 0 0 0 0 0 0 0 0 0 0 127 0" result="hardAlpha"/>
<feOffset dy="4"/>
<feGaussianBlur stdDeviation="2"/>
<feComposite in2="hardAlpha" operator="out"/>
<feColorMatrix type="matrix" values="0 0 0 0 0 0 0 0 0 0 0 0 0 0 0 0 0 0 0.25 0"/>
<feBlend mode="normal" in2="effect1_dropShadow_1_731" result="effect2_dropShadow_1_731"/>
<feColorMatrix in="SourceAlpha" type="matrix" values="0 0 0 0 0 0 0 0 0 0 0 0 0 0 0 0 0 0 127 0" result="hardAlpha"/>
<feOffset dy="4"/>
<feGaussianBlur stdDeviation="2"/>
<feComposite in2="hardAlpha" operator="out"/>
<feColorMatrix type="matrix" values="0 0 0 0 0 0 0 0 0 0 0 0 0 0 0 0 0 0 0.25 0"/>
<feBlend mode="normal" in2="effect2_dropShadow_1_731" result="effect3_dropShadow_1_731"/>
<feBlend mode="normal" in="SourceGraphic" in2="effect3_dropShadow_1_731" result="shape"/>
</filter>
</defs>
</svg>
